<mxfile host="app.diagrams.net" modified="2020-12-19T05:27:11.285Z" agent="5.0 (Windows NT 10.0; Win64; x64) AppleWebKit/537.36 (KHTML, like Gecko) Chrome/87.0.4280.88 Safari/537.36" etag="69AvzLcULl7BvI23bodP" version="13.10.4" type="github">
  <diagram id="keqL9WlTgdEo5_eYwR-L" name="Page-1">
    <mxGraphModel dx="768" dy="1841" grid="1" gridSize="10" guides="1" tooltips="1" connect="1" arrows="1" fold="1" page="1" pageScale="1" pageWidth="827" pageHeight="1169" math="0" shadow="0">
      <root>
        <mxCell id="0" />
        <mxCell id="1" parent="0" />
        <mxCell id="YRheG2ZyHIjSksEup-oJ-2" value="档案管理系统" style="shape=umlLifeline;perimeter=lifelinePerimeter;whiteSpace=wrap;html=1;container=1;collapsible=0;recursiveResize=0;outlineConnect=0;" vertex="1" parent="1">
          <mxGeometry x="190" y="-30" width="100" height="630" as="geometry" />
        </mxCell>
        <mxCell id="YRheG2ZyHIjSksEup-oJ-3" value="" style="html=1;points=[];perimeter=orthogonalPerimeter;" vertex="1" parent="YRheG2ZyHIjSksEup-oJ-2">
          <mxGeometry x="45" y="90" width="10" height="80" as="geometry" />
        </mxCell>
        <mxCell id="YRheG2ZyHIjSksEup-oJ-5" value="验证成功" style="html=1;verticalAlign=bottom;endArrow=open;dashed=1;endSize=8;exitX=0;exitY=0.95;" edge="1" source="YRheG2ZyHIjSksEup-oJ-3" parent="YRheG2ZyHIjSksEup-oJ-2">
          <mxGeometry relative="1" as="geometry">
            <mxPoint x="-80" y="166" as="targetPoint" />
          </mxGeometry>
        </mxCell>
        <mxCell id="YRheG2ZyHIjSksEup-oJ-11" value="" style="html=1;points=[];perimeter=orthogonalPerimeter;" vertex="1" parent="YRheG2ZyHIjSksEup-oJ-2">
          <mxGeometry x="45" y="250" width="10" height="80" as="geometry" />
        </mxCell>
        <mxCell id="YRheG2ZyHIjSksEup-oJ-17" value="" style="html=1;points=[];perimeter=orthogonalPerimeter;" vertex="1" parent="YRheG2ZyHIjSksEup-oJ-2">
          <mxGeometry x="45" y="360" width="10" height="80" as="geometry" />
        </mxCell>
        <mxCell id="YRheG2ZyHIjSksEup-oJ-4" value="登陆" style="html=1;verticalAlign=bottom;endArrow=block;entryX=0;entryY=0;exitX=1;exitY=0;exitDx=0;exitDy=0;exitPerimeter=0;" edge="1" target="YRheG2ZyHIjSksEup-oJ-3" parent="1">
          <mxGeometry relative="1" as="geometry">
            <mxPoint x="110" y="60" as="sourcePoint" />
          </mxGeometry>
        </mxCell>
        <mxCell id="YRheG2ZyHIjSksEup-oJ-6" value="" style="shape=umlLifeline;participant=umlActor;perimeter=lifelinePerimeter;whiteSpace=wrap;html=1;container=1;collapsible=0;recursiveResize=0;verticalAlign=top;spacingTop=36;outlineConnect=0;" vertex="1" parent="1">
          <mxGeometry x="100" y="-20" width="20" height="610" as="geometry" />
        </mxCell>
        <mxCell id="YRheG2ZyHIjSksEup-oJ-9" value="" style="html=1;points=[];perimeter=orthogonalPerimeter;" vertex="1" parent="YRheG2ZyHIjSksEup-oJ-6">
          <mxGeometry x="5" y="220" width="10" height="80" as="geometry" />
        </mxCell>
        <mxCell id="YRheG2ZyHIjSksEup-oJ-29" value="" style="html=1;points=[];perimeter=orthogonalPerimeter;" vertex="1" parent="YRheG2ZyHIjSksEup-oJ-6">
          <mxGeometry x="5" y="410" width="10" height="60" as="geometry" />
        </mxCell>
        <mxCell id="YRheG2ZyHIjSksEup-oJ-8" value="普通用户" style="text;html=1;align=center;verticalAlign=middle;resizable=0;points=[];autosize=1;" vertex="1" parent="1">
          <mxGeometry x="80" y="-50" width="60" height="20" as="geometry" />
        </mxCell>
        <mxCell id="YRheG2ZyHIjSksEup-oJ-12" value="&lt;u&gt;&lt;span style=&quot;font-size: 10.0pt&quot;&gt;外借/归还/借阅&lt;/span&gt;&lt;/u&gt;" style="html=1;verticalAlign=bottom;startArrow=oval;endArrow=block;startSize=8;" edge="1" target="YRheG2ZyHIjSksEup-oJ-11" parent="1" source="YRheG2ZyHIjSksEup-oJ-6">
          <mxGeometry relative="1" as="geometry">
            <mxPoint x="175" y="200" as="sourcePoint" />
            <Array as="points">
              <mxPoint x="150" y="240" />
            </Array>
          </mxGeometry>
        </mxCell>
        <mxCell id="YRheG2ZyHIjSksEup-oJ-13" value="" style="shape=umlLifeline;participant=umlActor;perimeter=lifelinePerimeter;whiteSpace=wrap;html=1;container=1;collapsible=0;recursiveResize=0;verticalAlign=top;spacingTop=36;outlineConnect=0;" vertex="1" parent="1">
          <mxGeometry x="394" y="-20" width="20" height="610" as="geometry" />
        </mxCell>
        <mxCell id="YRheG2ZyHIjSksEup-oJ-14" value="" style="html=1;points=[];perimeter=orthogonalPerimeter;" vertex="1" parent="YRheG2ZyHIjSksEup-oJ-13">
          <mxGeometry x="5" y="280" width="10" height="80" as="geometry" />
        </mxCell>
        <mxCell id="YRheG2ZyHIjSksEup-oJ-15" value="发送请求" style="html=1;verticalAlign=bottom;endArrow=block;entryX=0;entryY=0;" edge="1" target="YRheG2ZyHIjSksEup-oJ-14" parent="1" source="YRheG2ZyHIjSksEup-oJ-2">
          <mxGeometry relative="1" as="geometry">
            <mxPoint x="329" y="260" as="sourcePoint" />
          </mxGeometry>
        </mxCell>
        <mxCell id="YRheG2ZyHIjSksEup-oJ-16" value="处理请求，录入数据" style="html=1;verticalAlign=bottom;endArrow=open;dashed=1;endSize=8;exitX=0;exitY=0.95;" edge="1" source="YRheG2ZyHIjSksEup-oJ-14" parent="1" target="YRheG2ZyHIjSksEup-oJ-2">
          <mxGeometry relative="1" as="geometry">
            <mxPoint x="329" y="336" as="targetPoint" />
          </mxGeometry>
        </mxCell>
        <mxCell id="YRheG2ZyHIjSksEup-oJ-30" value="返回信息" style="html=1;verticalAlign=bottom;endArrow=block;entryX=1;entryY=0;" edge="1" target="YRheG2ZyHIjSksEup-oJ-29" parent="1" source="YRheG2ZyHIjSksEup-oJ-2">
          <mxGeometry relative="1" as="geometry">
            <mxPoint x="175" y="390" as="sourcePoint" />
          </mxGeometry>
        </mxCell>
        <mxCell id="YRheG2ZyHIjSksEup-oJ-32" value="档案室管理员" style="text;html=1;align=center;verticalAlign=middle;resizable=0;points=[];autosize=1;" vertex="1" parent="1">
          <mxGeometry x="355" y="-50" width="90" height="20" as="geometry" />
        </mxCell>
      </root>
    </mxGraphModel>
  </diagram>
</mxfile>
